<svg xmlns="http://www.w3.org/2000/svg" viewBox="167 84 1074 633">
  <g fill="#AD21ED">
    <path d="M 209.5 90 L 217 95.5 Q 224.2 108.8 235.5 118 Q 251.3 134.2 272.5 145 L 359.5 185 L 373.5 193 L 394.5 201 L 414.5 212 L 433.5 219 L 448.5 228 L 467.5 235 L 557.5 279 L 573.5 285 L 580 290.5 L 589 306.5 L 606.5 325 Q 619.75 334.25 640.5 336 Q 654.57 333.57 662 324.5 L 670 305.5 L 676 279.5 L 686.5 266 L 701.5 259 L 716.5 259 Q 730.33 262.67 737.5 273 L 750.5 275 L 759 280.5 L 762 288.5 L 759.5 291 Q 748.63 289.62 742.5 293 L 737 298.5 L 736 304.5 L 740 322.5 L 745.5 331 L 753.5 335 L 768.5 336 L 793.5 330 L 807 320.5 Q 819.51 310.01 826 293.5 L 833.5 286 L 1134.5 146 Q 1164.29 130.29 1185 105.5 L 1196.5 90 L 1202 93.5 L 1207 107.5 L 1207 114.5 L 1199 139.5 L 1179.5 162 L 1156.5 179 L 1124.5 197 L 1086.5 216 L 1071.5 221 L 1041.5 236 L 1030.5 239 L 1015 247.5 L 1014 249.5 Q 1015.25 253.25 1021.5 252 L 1231.5 185 L 1235 188.5 L 1234 189.5 Q 1227.02 206.52 1213.5 217 Q 1187.57 237.57 1153.5 250 L 1137.5 254 L 1101.5 267 L 1095.5 267 L 1063.5 277 L 1041.5 281 L 1016.5 289 L 1004.5 291 L 1000 294.5 Q 1001.5 298.5 1008.5 297 L 1013.5 295 L 1052.5 291 L 1067.5 287 L 1074.5 287 L 1078.5 285 L 1091.5 285 L 1122.5 279 L 1129.5 279 L 1134.5 277 L 1144.5 277 L 1182.5 271 L 1187.5 269 L 1232.5 263 L 1235 266.5 L 1220.5 283 L 1189.5 301 L 1150.5 313 L 1119.5 317 L 1114.5 319 L 1103.5 319 L 1083.5 323 L 1069.5 323 L 1065.5 325 L 1026.5 327 L 1020.5 329 L 1000.5 329 L 993.5 330 L 990 333.5 L 993.5 337 L 1048.5 337 L 1053.5 338 L 1058.5 337 L 1059.5 338 L 1088.5 338 L 1089.5 339 L 1202.5 340 L 1205 342.5 L 1201.5 348 Q 1183.8 361.3 1159.5 368 Q 1151.13 367.63 1146.5 371 L 1139.5 371 L 1135.5 373 L 1117.5 373 L 1099.5 375 L 1094.5 374 L 1083.5 375 L 1081.5 374 L 1079.5 374 L 1045.5 373 L 1034.5 371 L 1011.5 371 L 1005.5 369 L 985.5 369 L 981.5 367 L 957.5 366 Q 952 369 958.5 372 L 989.5 377 L 993.5 379 L 1001.5 379 L 1015.5 383 L 1033.5 385 L 1048.5 389 L 1055.5 389 L 1070.5 393 L 1077.5 393 L 1082.5 395 L 1110.5 399 Q 1118.84 403.16 1131.5 403 L 1140 406.5 Q 1141.5 410.88 1138.5 410 Q 1128.23 417.73 1113.5 421 Q 1106.14 420.14 1102.5 423 L 1091.5 423 L 1084.5 425 L 1070.5 425 L 1064.5 423 L 1037.5 421 L 1032.5 419 L 1014.5 417 L 1007.5 414 L 951.5 403 L 935.5 397 L 927.5 396 L 926 399.5 L 932.5 404 L 1006.5 429 L 1028.5 439 L 1047.5 444 L 1061 451.5 L 1060 455 L 1044.5 459 L 1013.5 461 L 963.5 450 L 889.5 419 L 888 423.5 L 946.5 457 L 960.5 467 L 975.5 474 L 980 478.5 L 977.5 482 L 960.5 484 L 958.5 484 L 943.5 483 L 912.5 474 L 870.5 451 L 848.5 435 L 839.5 432 L 837 435.5 L 853.5 453 L 864 462.5 L 877.5 477 L 885 483.5 Q 885.75 488.25 882.5 489 L 876.5 489 L 857.5 484 L 832.5 473 L 799 445.5 L 762.5 403 L 758 404 L 754 424.5 L 745 450.5 L 736 467.5 L 736 472.5 L 836 650.5 L 835 653 L 825.5 651 L 812.5 643 L 791 622.5 L 758.5 575 L 755 577.5 L 755 582.5 L 788 679.5 L 789 687.5 L 785.5 689 L 772 678.5 Q 755.4 661.1 745 637.5 Q 733 611.5 726 580.5 L 722.5 577 L 720 579.5 L 720 629.5 L 717 666.5 L 711 697.5 Q 709.63 706.13 704.5 711 L 701 708.5 L 695 690.5 L 691 665.5 L 689 624.5 L 688 623.5 L 688 580.5 L 685.5 578 L 681 583.5 L 673 613.5 L 657 650.5 Q 645.5 671.5 627.5 686 L 620.5 689 L 619 683.5 L 645 607.5 L 646 600.5 L 653 583.5 L 654 575.5 L 650.5 573 L 645 579.5 L 635 598.5 L 614.5 626 Q 602.38 639.38 586.5 649 Q 581.62 653.77 573 653 L 572 649.5 L 631 547.5 L 651 509.5 L 660 496.5 L 673 472.5 L 673 467.5 L 661 444.5 Q 653.8 427.21 651 405.5 L 647.5 402 L 639 408.5 L 631 421.5 L 601.5 453 L 583.5 468 L 571.5 475 L 545.5 486 L 526.5 489 L 524 488 L 523 484.5 L 532.5 474 L 545 462.5 L 557.5 449 L 571 436.5 L 572 433.5 Q 571.25 430.25 566.5 431 L 537.5 451 L 498.5 473 L 465.5 483 L 446.5 484 L 433.5 483 L 429 480.5 L 428 478.5 L 432.5 474 L 454.5 463 L 466.5 454 Q 489.23 444.73 507 430.5 L 505.5 426 L 488.5 431 L 443.5 450 L 397.5 461 L 380.5 461 L 358.5 458 L 348 453.5 Q 346.5 449.12 349.5 450 L 361.5 444 L 382.5 438 L 419.5 423 L 453.5 412 L 468 404.5 L 466.5 400 L 455.5 403 L 448.5 403 L 436.5 407 L 382.5 419 L 375.5 419 L 354.5 423 L 322.5 425 L 291.5 420 L 268 409.5 L 269.5 405 L 274.5 403 L 282.5 403 L 297.5 399 L 304.5 399 L 319.5 395 L 326.5 395 L 330.5 393 L 337.5 393 L 342.5 391 L 381.5 385 L 385.5 383 L 402.5 381 L 407.5 379 L 414.5 379 L 430.5 375 L 448.5 373 L 455 368.5 L 452.5 366 L 441.5 366 L 440.5 367 L 427.5 367 L 422.5 369 L 404.5 369 L 395.5 371 L 299.5 375 Q 289.05 371.45 273.5 373 L 269.5 371 L 247.5 368 L 220.5 357 L 204 344.5 L 205.5 340 L 332.5 339 L 349.5 337 L 416.5 337 L 421 334.5 L 419.5 331 L 410.5 329 L 366.5 327 L 361.5 325 L 308.5 321 L 303.5 319 L 258.5 313 L 218.5 301 Q 198.98 292.25 184 280 L 182.5 278 Q 175.63 274.38 174 265.5 Q 175.75 261.25 183.5 263 L 188.5 265 L 208.5 267 L 235.5 273 L 260.5 275 Q 285.22 282.28 316.5 283 L 348.5 290 L 367.5 291 L 395.5 297 L 411.5 298 Q 417 295 410.5 292 L 384.5 287 L 351.5 277 L 331.5 274 L 314.5 267 L 290.5 262 L 244.5 246 Q 210.59 231.91 186 208.5 L 173 188.5 L 177.5 185 Q 193.59 192.91 214.5 196 L 268.5 215 L 283.5 218 L 318.5 231 L 327.5 232 L 361.5 245 L 371.5 246 L 390.5 254 L 409.5 259 L 411 255.5 L 402.5 250 L 388.5 246 L 363.5 233 L 340.5 225 L 321.5 214 L 306.5 209 L 251.5 179 L 222 155.5 L 207 134.5 L 202 117.5 L 202 106.5 Q 203.44 95.94 209.5 90 Z M 703 358 L 698 377 L 678 378 L 693 390 L 688 405 L 689 408 L 704 397 L 720 408 L 721 408 L 715 388 L 731 378 L 712 377 L 705 361 Q 706 357 703 358 Z "/>
    <path d="M 703 358 Q 706 356.75 705 360.5 L 711.5 377 L 731 377.5 L 715 388 L 721 407.5 L 719.5 408 L 703.5 397 L 688.5 408 L 688 404.5 L 693 389.5 L 678 377.5 L 698 377 L 703 358 Z "/>
  </g>
  <g fill="#EAE5E3">
    <path d="M 703 358 Q 706 356.75 705 360.5 L 711.5 377 L 731 377.5 L 715 388 L 721 407.5 L 719.5 408 L 703.5 397 L 688.5 408 L 688 404.5 L 693 389.5 L 678 377.5 L 698 377 L 703 358 Z "/>
  </g>
  <g fill="#010101">
    <path d="M 704.77 126.2 L 707.34 126.71 L 707.34 154.95 L 678.07 155.98 L 670.88 158.03 L 663.69 158.03 L 658.56 160.09 L 652.4 160.09 L 640.07 164.2 L 635.97 164.2 L 601.05 176.52 L 582.57 185.76 L 570.24 193.98 L 567.68 193.98 L 567.68 196.03 L 564.6 196.03 Q 565.76 198.77 563.06 198.08 L 556.38 202.19 Q 557.54 204.93 554.84 204.25 L 543.03 214 Q 543.8 216.31 541.49 215.54 L 539.95 218.62 Q 536.1 217.08 536.87 220.16 L 527.11 230.95 L 524.03 233 Q 519.43 229.39 511.71 228.89 L 509.66 226.84 L 506.57 226.84 L 494.25 220.68 L 491.17 220.68 L 483.98 216.57 L 475.77 214.52 L 446.5 200.65 L 449.07 200.14 L 459.34 204.25 L 469.61 206.3 L 472.69 208.35 L 477.82 208.35 L 507.6 216.57 L 514.79 216.57 L 524.03 218.62 L 526.09 218.62 L 532.76 214 L 540.46 203.22 L 544.06 200.65 L 546.62 197.06 Q 548.94 197.83 548.17 195.52 L 554.33 187.82 L 579.49 167.28 L 599 154.95 L 611.32 149.82 L 614.4 146.74 L 649.32 134.42 L 660.61 132.36 L 663.69 130.31 L 670.88 130.31 L 679.1 128.25 L 681.15 128.25 L 686.29 127.23 L 703.74 127.23 L 704.77 126.2 Z "/>
  </g>
  <g fill="#F2F2F2">
    <path d="M 708.36 128.25 L 723.25 128.25 L 724.28 129.28 L 735.58 129.28 L 736.6 130.31 L 748.93 131.33 L 773.57 137.5 L 798.22 146.74 Q 834.62 163.22 861.38 189.36 Q 860.61 191.67 862.92 190.9 L 864.46 193.98 L 867.54 195.52 L 884.99 217.6 L 887.56 218.62 L 902.97 218.62 L 922.48 213.49 L 926.58 213.49 L 930.69 211.43 L 934.8 211.43 L 961.5 203.22 L 961.5 204.25 L 891.67 231.97 L 878.32 217.6 L 875.75 216.06 Q 876.52 213.75 874.21 214.52 Q 844.18 184.98 800.27 169.33 L 759.2 158.03 L 739.69 155.98 L 738.66 154.95 L 729.42 154.95 L 728.39 153.93 L 708.36 153.93 L 708.36 128.25 Z "/>
  </g>
  <g fill="#010101">
    <path d="M 727.84 410.08 Q 746.32 465.92 796.44 491.2 L 810.83 477.3 Q 755.67 456.89 732.16 405.92 Z"/>
    <path d="M 717.77 419.81 Q 736.24 475.65 786.37 500.92 L 800.76 487.03 Q 745.6 466.62 722.09 415.64 Z"/>
    <path d="M 680.16 410.08 Q 661.68 465.92 611.56 491.2 L 597.17 477.3 Q 652.33 456.89 675.84 405.92 Z"/>
    <path d="M 690.23 419.81 Q 671.76 475.65 621.63 500.92 L 607.24 487.03 Q 662.4 466.62 685.91 415.64 Z"/>
  </g>
</svg>
