<svg xmlns="http://www.w3.org/2000/svg" viewBox="0 0 400 340" width="400" height="340">
  <g id="v-filoso">
    <g fill="#AC27FF">
      <path d="M 178.4 251.7 Q 186.7 276.7 211.4 300.1 Q 208.2 266.2 193.6 244.3 Z"/><path d="M 184 250.1 Q 187.3 279.8 207.8 312.3 Q 212.1 274.1 202 245.9 Z"/><path d="M 190 248 Q 186.5 281.3 200 322 Q 213.5 281.3 210 248 Z"/><path d="M 198 245.9 Q 187.9 274.1 192.2 312.3 Q 212.7 279.8 216 250.1 Z"/><path d="M 206.4 244.3 Q 191.8 266.2 188.6 300.1 Q 213.3 276.7 221.6 251.7 Z"/>
      <g><path d="M 206.7 173.8 Q 232 192.6 272 202 Q 248.2 168.5 221.3 152.2 Z"/><path d="M 222.5 164.4 Q 256.4 176.8 302.4 177.2 Q 264.5 151 229.8 141.6 Z"/><path d="M 237.7 154 Q 277.2 157.6 326.3 147.7 Q 278.6 132.6 238.9 132 Z"/><path d="M 252.4 142.8 Q 295.2 136.1 344.9 114.8 Q 290.8 113.5 248.6 123.2 Z"/><path d="M 266.3 131.2 Q 310.5 113.1 359.4 79.6 Q 301.9 93.9 259 114.8 Z"/><path d="M 279.5 119.5 Q 323.7 89.5 371.1 43.6 Q 312.6 74.1 270.2 106.5 Z"/><path d="M 292 107.9 Q 335.3 66.2 381 8 Q 323.3 54.3 282 98.1 Z"/></g>
      <g transform="translate(400,0) scale(-1,1)"><path d="M 206.7 173.8 Q 232 192.6 272 202 Q 248.2 168.5 221.3 152.2 Z"/><path d="M 222.5 164.4 Q 256.4 176.8 302.4 177.2 Q 264.5 151 229.8 141.6 Z"/><path d="M 237.7 154 Q 277.2 157.6 326.3 147.7 Q 278.6 132.6 238.9 132 Z"/><path d="M 252.4 142.8 Q 295.2 136.1 344.9 114.8 Q 290.8 113.5 248.6 123.2 Z"/><path d="M 266.3 131.2 Q 310.5 113.1 359.4 79.6 Q 301.9 93.9 259 114.8 Z"/><path d="M 279.5 119.5 Q 323.7 89.5 371.1 43.6 Q 312.6 74.1 270.2 106.5 Z"/><path d="M 292 107.9 Q 335.3 66.2 381 8 Q 323.3 54.3 282 98.1 Z"/></g>
      <path d="M 200 86 C 206.7 86 214.8 87.3 220 92 C 225.2 96.7 230.7 105.8 231 114 C 231.3 122.2 221.7 133.5 222 141 C 222.3 148.5 228.8 150.8 233 159 C 237.2 167.2 245.7 179.7 247 190 C 248.3 200.3 245 211.8 241 221 C 237 230.2 229.8 239.2 223 245 C 216.2 250.8 207.7 256 200 256 C 192.3 256 183.8 250.8 177 245 C 170.2 239.2 163 230.2 159 221 C 155 211.8 151.7 200.3 153 190 C 154.3 179.7 162.8 167.2 167 159 C 171.2 150.8 177.7 148.5 178 141 C 178.3 133.5 168.7 122.2 169 114 C 169.3 105.8 174.8 96.7 180 92 C 185.2 87.3 193.3 86 200 86 Z"/>
    </g>
    <path d="M 200 164 L 206.1 182.7 L 225.7 182.7 L 209.8 194.2 L 215.9 212.8 L 200 201.3 L 184.1 212.8 L 190.2 194.2 L 174.3 182.7 L 193.9 182.7 Z" fill="#E9E4E4"/>
    <g stroke="#E9E4E4" stroke-width="7.5" stroke-linecap="round" fill="none">
      <path d="M 218 214 L 230 238"/><path d="M 182 214 L 170 238"/></g>
    <g>
      <path d="M 106 122 Q 147 82 200 76 L 200 89 Q 155 99 117.7 120 Z" fill="#100A18" stroke="#E9E4E4" stroke-width="2.2" stroke-linejoin="round"/>
      <path d="M 294 122 Q 253 82 200 76 L 200 89 Q 245 99 282.3 120 Z" fill="#E9E4E4"/></g>
  </g></svg>