<svg xmlns="http://www.w3.org/2000/svg" viewBox="0 0 400 340" width="400" height="340">
  <g id="v-suave">
    <g fill="#AC27FF">
      <path d="M 177.5 257.4 Q 189.4 271.2 212.6 277.7 Q 202.2 255.9 186.5 246.6 Z"/><path d="M 183.7 255.4 Q 190.2 276.2 211.3 295.5 Q 210.1 266.9 198.3 248.6 Z"/><path d="M 191 252 Q 188 277.2 200 308 Q 212 277.2 209 252 Z"/><path d="M 201.7 248.6 Q 189.9 266.9 188.7 295.5 Q 209.8 276.2 216.3 255.4 Z"/><path d="M 213.5 246.6 Q 197.8 255.9 187.4 277.7 Q 210.6 271.2 222.5 257.4 Z"/>
      <g><path d="M 203.2 176.2 Q 222.3 203.4 269 208 Q 255.2 163.1 224.8 149.8 Z"/><path d="M 219.5 167.8 Q 248 190.6 297.8 185.4 Q 268.8 144.6 232.9 138.2 Z"/><path d="M 235.8 158.3 Q 271.5 173.4 320.9 156.8 Q 279.5 125.1 240.9 127.7 Z"/><path d="M 252 147.7 Q 292.9 152.5 339.3 123.8 Q 288 105.2 249 118.3 Z"/><path d="M 267.7 136.1 Q 311.9 128.6 353.7 87.9 Q 295.4 85.7 257.6 109.9 Z"/><path d="M 282.3 123.9 Q 328.2 103.3 365.3 50.7 Q 303 66.6 267.3 102.1 Z"/><path d="M 295.9 111.8 Q 341.9 78.1 375 14 Q 311.3 47.8 278.1 94.2 Z"/></g>
      <g transform="translate(400,0) scale(-1,1)"><path d="M 203.2 176.2 Q 222.3 203.4 269 208 Q 255.2 163.1 224.8 149.8 Z"/><path d="M 219.5 167.8 Q 248 190.6 297.8 185.4 Q 268.8 144.6 232.9 138.2 Z"/><path d="M 235.8 158.3 Q 271.5 173.4 320.9 156.8 Q 279.5 125.1 240.9 127.7 Z"/><path d="M 252 147.7 Q 292.9 152.5 339.3 123.8 Q 288 105.2 249 118.3 Z"/><path d="M 267.7 136.1 Q 311.9 128.6 353.7 87.9 Q 295.4 85.7 257.6 109.9 Z"/><path d="M 282.3 123.9 Q 328.2 103.3 365.3 50.7 Q 303 66.6 267.3 102.1 Z"/><path d="M 295.9 111.8 Q 341.9 78.1 375 14 Q 311.3 47.8 278.1 94.2 Z"/></g>
      <path d="M 200 86 C 206.7 86 214.8 87.3 220 92 C 225.2 96.7 230.7 105.8 231 114 C 231.3 122.2 221.7 133.5 222 141 C 222.3 148.5 228.8 150.8 233 159 C 237.2 167.2 245.7 179.7 247 190 C 248.3 200.3 245 211.8 241 221 C 237 230.2 229.8 239.2 223 245 C 216.2 250.8 207.7 256 200 256 C 192.3 256 183.8 250.8 177 245 C 170.2 239.2 163 230.2 159 221 C 155 211.8 151.7 200.3 153 190 C 154.3 179.7 162.8 167.2 167 159 C 171.2 150.8 177.7 148.5 178 141 C 178.3 133.5 168.7 122.2 169 114 C 169.3 105.8 174.8 96.7 180 92 C 185.2 87.3 193.3 86 200 86 Z"/>
    </g>
    <path d="M 200 161 L 205.6 178.3 L 223.8 178.3 L 209.1 189 L 214.7 206.2 L 200 195.6 L 185.3 206.2 L 190.9 189 L 176.2 178.3 L 194.4 178.3 Z" fill="#E9E4E4"/>
    <g stroke="#E9E4E4" stroke-width="7" stroke-linecap="round" fill="none">
      <path d="M 225 211 L 236 232"/><path d="M 175 211 L 164 232"/></g>
    <g fill="none" stroke-linecap="round">
      <path d="M 100 104 Q 200 44 300 104" stroke="#E9E4E4" stroke-width="14"/>
      <path d="M 120 93.2 Q 160 74 200 74" stroke="#100A18" stroke-width="9"/></g>
  </g></svg>